<svg width="20" height="32" viewBox="0 0 20 32" fill="none" xmlns="http://www.w3.org/2000/svg">
<path d="M16.8529 22.1465L14.0059 19.3025C14.9369 18.2115 15.4999 16.7975 15.4999 15.2505C15.4999 11.7985 12.7019 9.00049 9.24988 9.00049C5.79788 9.00049 2.99988 11.7985 2.99988 15.2505C2.99988 18.7025 5.79788 21.5005 9.24988 21.5005C10.7949 21.5005 12.2079 20.9385 13.2989 20.0095L16.1469 22.8535C16.2449 22.9515 16.3719 22.9995 16.4999 22.9995C16.6279 22.9995 16.7559 22.9505 16.8539 22.8525C17.0489 22.6585 17.0489 22.3415 16.8529 22.1465ZM3.99988 15.2505C3.99988 12.3555 6.35488 10.0005 9.24988 10.0005C12.1449 10.0005 14.4999 12.3555 14.4999 15.2505C14.4999 18.1455 12.1449 20.5005 9.24988 20.5005C6.35488 20.5005 3.99988 18.1455 3.99988 15.2505Z" fill="#838691"/>
</svg>
